<svg width="24" height="24" viewBox="0 0 24 24" fill="none" xmlns="http://www.w3.org/2000/svg">
<path d="M12 2.29688C14.5726 2.2996 17.0393 3.3225 18.8584 5.1416C20.6775 6.9607 21.7004 9.42741 21.7031 12C21.7031 13.9191 21.1336 15.795 20.0674 17.3906C19.0012 18.9862 17.4859 20.2305 15.7129 20.9648C13.9401 21.6991 11.9894 21.8909 10.1074 21.5166C8.2252 21.1422 6.49568 20.2183 5.13867 18.8613C3.78167 17.5043 2.8578 15.7748 2.4834 13.8926C2.10913 12.0106 2.30094 10.0599 3.03516 8.28711C3.76954 6.51414 5.01376 4.99881 6.60938 3.93262C8.10528 2.93308 9.84743 2.37016 11.6406 2.30371L12 2.29688ZM15.1748 4.33496C13.6589 3.7071 11.9911 3.54231 10.3818 3.8623C8.7724 4.18244 7.29315 4.97247 6.13281 6.13281C4.97247 7.29315 4.18244 8.7724 3.8623 10.3818C3.54231 11.9911 3.7071 13.6589 4.33496 15.1748C4.96293 16.6909 6.02621 17.9868 7.39062 18.8984C8.66964 19.753 10.1592 20.2341 11.6924 20.291L12 20.2969C14.1997 20.2944 16.3088 19.4197 17.8643 17.8643C19.4197 16.3088 20.2944 14.1997 20.2969 12C20.2969 10.359 19.8101 8.75504 18.8984 7.39062C17.9868 6.02621 16.6909 4.96293 15.1748 4.33496ZM15.75 9.0459C15.8424 9.0459 15.9342 9.06422 16.0195 9.09961C16.1048 9.13499 16.1818 9.18759 16.2471 9.25293C16.3124 9.3182 16.365 9.39517 16.4004 9.48047C16.4358 9.56583 16.4541 9.6576 16.4541 9.75C16.4541 9.8424 16.4358 9.93417 16.4004 10.0195C16.365 10.1048 16.3124 10.1818 16.2471 10.2471L10.9971 15.4971C10.9318 15.5624 10.8548 15.615 10.7695 15.6504C10.6842 15.6858 10.5924 15.7041 10.5 15.7041C10.4076 15.7041 10.3158 15.6858 10.2305 15.6504C10.1452 15.615 10.0682 15.5624 10.0029 15.4971L7.75293 13.2471C7.62099 13.1151 7.54688 12.9366 7.54688 12.75C7.54688 12.5634 7.62099 12.3849 7.75293 12.2529C7.88487 12.121 8.06341 12.0469 8.25 12.0469C8.43659 12.0469 8.61513 12.121 8.74707 12.2529L10.5 14.0059L15.2529 9.25293C15.3182 9.18759 15.3952 9.13499 15.4805 9.09961C15.5658 9.06423 15.6576 9.0459 15.75 9.0459Z" fill="#6F7C89" stroke="#6F7C89" stroke-width="0.09375"/>
</svg>
