<svg width="48" height="48" viewBox="0 0 48 48" fill="none" xmlns="http://www.w3.org/2000/svg">
<rect width="48" height="48" rx="8" fill="#F4F5F6"/>
<path d="M26 33.2501H22V34.7501H26V33.2501ZM14.75 26.0001V22.0001H13.25V26.0001H14.75ZM33.25 25.563V26.0001H34.75V25.563H33.25ZM26.8912 16.6112L30.85 20.1741L31.8534 19.0591L27.8947 15.4962L26.8912 16.6112ZM34.75 25.563C34.75 23.8745 34.7651 22.8056 34.3391 21.849L32.9689 22.4593C33.2349 23.0566 33.25 23.7421 33.25 25.563H34.75ZM30.85 20.1741C32.2034 21.3922 32.7029 21.862 32.9689 22.4593L34.3391 21.849C33.9131 20.8925 33.1084 20.1886 31.8534 19.0591L30.85 20.1741ZM22.0298 14.7501C23.6116 14.7501 24.2085 14.7616 24.7405 14.9658L25.2779 13.5654C24.4261 13.2385 23.498 13.2501 22.0298 13.2501V14.7501ZM27.8947 15.4962C26.8087 14.5188 26.1297 13.8922 25.2779 13.5654L24.7405 14.9658C25.2727 15.17 25.7215 15.5584 26.8912 16.6112L27.8947 15.4962ZM22 33.2501C20.0932 33.2501 18.7385 33.2485 17.7109 33.1103C16.7048 32.9751 16.1251 32.7214 15.7019 32.2982L14.6412 33.3589C15.3896 34.1072 16.3386 34.4393 17.511 34.597C18.6618 34.7517 20.1356 34.7501 22 34.7501V33.2501ZM13.25 26.0001C13.25 27.8645 13.2484 29.3383 13.4031 30.4891C13.5608 31.6615 13.8929 32.6105 14.6412 33.3589L15.7019 32.2982C15.2787 31.875 15.025 31.2953 14.8898 30.2893C14.7516 29.2616 14.75 27.9069 14.75 26.0001H13.25ZM26 34.7501C27.8644 34.7501 29.3382 34.7517 30.489 34.597C31.6614 34.4393 32.6104 34.1072 33.3588 33.3589L32.2981 32.2982C31.8749 32.7214 31.2952 32.9751 30.2892 33.1103C29.2615 33.2485 27.9068 33.2501 26 33.2501V34.7501ZM33.25 26.0001C33.25 27.9069 33.2484 29.2616 33.1102 30.2893C32.975 31.2953 32.7213 31.875 32.2981 32.2982L33.3588 33.3589C34.1071 32.6105 34.4392 31.6615 34.5969 30.4891C34.7516 29.3383 34.75 27.8645 34.75 26.0001H33.25ZM14.75 22.0001C14.75 20.0932 14.7516 18.7386 14.8898 17.7109C15.025 16.7048 15.2787 16.1252 15.7019 15.702L14.6412 14.6413C13.8929 15.3897 13.5608 16.3386 13.4031 17.511C13.2484 18.6619 13.25 20.1356 13.25 22.0001H14.75ZM22.0298 13.2501C20.1554 13.2501 18.6744 13.2485 17.5189 13.4031C16.3423 13.5606 15.3902 13.8924 14.6412 14.6413L15.7019 15.702C16.1245 15.2793 16.706 15.0253 17.7179 14.8899C18.7508 14.7516 20.1131 14.7501 22.0298 14.7501V13.2501Z" fill="#383E44"/>
<path d="M18 26.5H26" stroke="#383E44" stroke-width="1.5" stroke-linecap="round"/>
<path d="M18 30H23.5" stroke="#383E44" stroke-width="1.5" stroke-linecap="round"/>
<path d="M25 14.5V17C25 19.357 25 20.5355 25.7322 21.2678C26.4645 22 27.643 22 30 22H34" stroke="#383E44" stroke-width="1.5"/>
</svg>
