<svg width="20" height="20" viewBox="0 0 20 20" fill="none" xmlns="http://www.w3.org/2000/svg">
<path d="M6.875 1.92188H13.125C13.2009 1.92182 13.2765 1.93681 13.3467 1.96582C13.4167 1.99483 13.4805 2.03723 13.5342 2.09082L16.6592 5.21582C16.7128 5.26947 16.7552 5.33326 16.7842 5.40332C16.8132 5.4735 16.8282 5.54906 16.8281 5.625V14.375C16.8281 14.6941 16.7012 15 16.4756 15.2256C16.25 15.4512 15.9441 15.5781 15.625 15.5781H14.3281V16.875C14.3281 17.1941 14.2012 17.5 13.9756 17.7256C13.75 17.9512 13.4441 18.0781 13.125 18.0781H4.375C4.05591 18.0781 3.75004 17.9512 3.52441 17.7256C3.29878 17.5 3.17188 17.1941 3.17188 16.875V5.625L3.17773 5.50586C3.20512 5.23052 3.32704 4.97179 3.52441 4.77441C3.75004 4.54878 4.05591 4.42188 4.375 4.42188H5.67188V3.125C5.67188 2.80591 5.79878 2.50004 6.02441 2.27441C6.25004 2.04878 6.55591 1.92188 6.875 1.92188ZM6.875 13.7969H10.625C10.7783 13.7969 10.9258 13.8574 11.0342 13.9658C11.1426 14.0742 11.2031 14.2217 11.2031 14.375C11.2031 14.5283 11.1426 14.6758 11.0342 14.7842C10.9258 14.8926 10.7783 14.9531 10.625 14.9531H6.875C6.72167 14.9531 6.57424 14.8926 6.46582 14.7842C6.3574 14.6758 6.29688 14.5283 6.29688 14.375C6.29688 14.2217 6.3574 14.0742 6.46582 13.9658C6.57424 13.8574 6.72167 13.7969 6.875 13.7969ZM6.875 11.2969H10.625C10.7783 11.2969 10.9258 11.3574 11.0342 11.4658C11.1426 11.5742 11.2031 11.7217 11.2031 11.875C11.2031 12.0283 11.1426 12.1758 11.0342 12.2842C10.9258 12.3926 10.7783 12.4531 10.625 12.4531H6.875C6.72167 12.4531 6.57424 12.3926 6.46582 12.2842C6.3574 12.1758 6.29688 12.0283 6.29688 11.875C6.29688 11.7217 6.3574 11.5742 6.46582 11.4658C6.57424 11.3574 6.72167 11.2969 6.875 11.2969ZM13.1719 8.36426L10.3857 5.57812H4.32812V16.9219H13.1719V8.36426ZM15.6719 5.86426L12.8857 3.07812H6.82812V4.42188H10.625C10.7009 4.42182 10.7765 4.43681 10.8467 4.46582C10.9167 4.49483 10.9805 4.53723 11.0342 4.59082L14.1592 7.71582C14.2128 7.76947 14.2552 7.83326 14.2842 7.90332C14.3132 7.9735 14.3282 8.04906 14.3281 8.125V14.4219H15.6719V5.86426Z" fill="#545D66" stroke="#545D66" stroke-width="0.09375"/>
</svg>
