<svg width="24" height="24" viewBox="0 0 24 24" fill="none" xmlns="http://www.w3.org/2000/svg">
<path d="M14 21.2501H10V22.7501H14V21.2501ZM2.75 14.0001V10.0001H1.25V14.0001H2.75ZM21.25 13.563V14.0001H22.75V13.563H21.25ZM14.8912 4.61117L18.85 8.17407L19.8534 7.05912L15.8947 3.49623L14.8912 4.61117ZM22.75 13.563C22.75 11.8745 22.7651 10.8056 22.3391 9.84902L20.9689 10.4593C21.2349 11.0566 21.25 11.7421 21.25 13.563H22.75ZM18.85 8.17407C20.2034 9.39215 20.7029 9.86204 20.9689 10.4593L22.3391 9.84902C21.9131 8.89246 21.1084 8.18858 19.8534 7.05912L18.85 8.17407ZM10.0298 2.75005C11.6116 2.75005 12.2085 2.76163 12.7405 2.96578L13.2779 1.56535C12.4261 1.23847 11.498 1.25005 10.0298 1.25005V2.75005ZM15.8947 3.49623C14.8087 2.51883 14.1297 1.89219 13.2779 1.56535L12.7405 2.96578C13.2727 3.16998 13.7215 3.55841 14.8912 4.61117L15.8947 3.49623ZM10 21.2501C8.09318 21.2501 6.73851 21.2485 5.71085 21.1103C4.70476 20.9751 4.12511 20.7214 3.7019 20.2982L2.64124 21.3589C3.38961 22.1072 4.33855 22.4393 5.51098 22.597C6.66182 22.7517 8.13558 22.7501 10 22.7501V21.2501ZM1.25 14.0001C1.25 15.8645 1.24841 17.3383 1.40313 18.4891C1.56076 19.6615 1.89288 20.6105 2.64124 21.3589L3.7019 20.2982C3.27869 19.875 3.02502 19.2953 2.88976 18.2893C2.75159 17.2616 2.75 15.9069 2.75 14.0001H1.25ZM14 22.7501C15.8644 22.7501 17.3382 22.7517 18.489 22.597C19.6614 22.4393 20.6104 22.1072 21.3588 21.3589L20.2981 20.2982C19.8749 20.7214 19.2952 20.9751 18.2892 21.1103C17.2615 21.2485 15.9068 21.2501 14 21.2501V22.7501ZM21.25 14.0001C21.25 15.9069 21.2484 17.2616 21.1102 18.2893C20.975 19.2953 20.7213 19.875 20.2981 20.2982L21.3588 21.3589C22.1071 20.6105 22.4392 19.6615 22.5969 18.4891C22.7516 17.3383 22.75 15.8645 22.75 14.0001H21.25ZM2.75 10.0001C2.75 8.09323 2.75159 6.73856 2.88976 5.7109C3.02502 4.70481 3.27869 4.12516 3.7019 3.70195L2.64124 2.64129C1.89288 3.38966 1.56076 4.3386 1.40313 5.51103C1.24841 6.66187 1.25 8.13563 1.25 10.0001H2.75ZM10.0298 1.25005C8.15538 1.25005 6.67442 1.24847 5.51887 1.40312C4.34232 1.56059 3.39019 1.89235 2.64124 2.64129L3.7019 3.70195C4.12453 3.27933 4.70596 3.0253 5.71785 2.88987C6.75075 2.75163 8.11311 2.75005 10.0298 2.75005V1.25005Z" fill="#61213C"/>
<path d="M6 14.5H14" stroke="#61213C" stroke-width="1.5" stroke-linecap="round"/>
<path d="M6 18H11.5" stroke="#61213C" stroke-width="1.5" stroke-linecap="round"/>
<path d="M13 2.5V5C13 7.35702 13 8.53553 13.7322 9.26777C14.4645 10 15.643 10 18 10H22" stroke="#61213C" stroke-width="1.5"/>
</svg>
