<svg width="20" height="20" viewBox="0 0 20 20" fill="none" xmlns="http://www.w3.org/2000/svg">
<path d="M8.95834 2.0416C9.53334 1.54993 10.475 1.54993 11.0583 2.0416L12.375 3.17502C12.625 3.39169 13.0917 3.56667 13.425 3.56667H14.8417C15.725 3.56667 16.45 4.29161 16.45 5.17494V6.59167C16.45 6.91667 16.625 7.39168 16.8417 7.64168L17.975 8.95831C18.4667 9.53331 18.4667 10.475 17.975 11.0583L16.8417 12.375C16.625 12.625 16.45 13.0916 16.45 13.425V14.8417C16.45 15.725 15.725 16.45 14.8417 16.45H13.425C13.1 16.45 12.625 16.6249 12.375 16.8416L11.0583 17.9749C10.4833 18.4666 9.54167 18.4666 8.95834 17.9749L7.64168 16.8416C7.39168 16.6249 6.925 16.45 6.59167 16.45H5.15C4.26666 16.45 3.54167 15.725 3.54167 14.8417V13.4166C3.54167 13.0916 3.36668 12.625 3.15834 12.375L2.03334 11.05C1.55 10.475 1.55 9.54165 2.03334 8.96665L3.15834 7.64168C3.36668 7.39168 3.54167 6.92501 3.54167 6.60001V5.17494C3.54167 4.29161 4.26666 3.56667 5.15 3.56667H6.59167C6.91667 3.56667 7.39168 3.39169 7.64168 3.17502L8.95834 2.0416Z" stroke="#545D66" stroke-width="1.5" stroke-linecap="round" stroke-linejoin="round"/>
<path d="M8.24169 12.3497L9.45001 13.283C9.60834 13.4413 9.95835 13.5163 10.1917 13.5163H11.6667C12.1333 13.5163 12.6417 13.1664 12.7583 12.6997L13.6917 9.84966C13.8833 9.30799 13.5334 8.83302 12.95 8.83302H11.3917C11.1584 8.83302 10.9667 8.64141 11 8.36641L11.1917 7.11641C11.2667 6.76641 11.0333 6.37471 10.6833 6.25805C10.375 6.14138 9.98335 6.29968 9.82502 6.53301L8.22501 8.90799" stroke="#545D66" stroke-width="1.5" stroke-miterlimit="10"/>
<path d="M6.25 12.3493V8.53269C6.25 7.98269 6.48334 7.79102 7.03334 7.79102H7.425C7.96667 7.79102 8.20834 7.98269 8.20834 8.53269V12.3493C8.20834 12.891 7.975 13.091 7.425 13.091H7.03334C6.48334 13.091 6.25 12.8993 6.25 12.3493Z" stroke="#545D66" stroke-width="1.5" stroke-linecap="round" stroke-linejoin="round"/>
</svg>
