<svg width="20" height="20" viewBox="0 0 20 20" fill="none" xmlns="http://www.w3.org/2000/svg">
<path d="M10 5.36621V8.14121" stroke="#A73966" stroke-width="1.5" stroke-miterlimit="10" stroke-linecap="round"/>
<path d="M10.0167 1.66699C6.95001 1.66699 4.46667 4.15033 4.46667 7.21699V8.96699C4.46667 9.53366 4.23334 10.3837 3.94167 10.867L2.88334 12.6337C2.23334 13.7253 2.68334 14.942 3.88334 15.342C7.86667 16.667 12.175 16.667 16.1583 15.342C17.2833 14.967 17.7667 13.6503 17.1583 12.6337L16.1 10.867C15.8083 10.3837 15.575 9.52532 15.575 8.96699V7.21699C15.5667 4.16699 13.0667 1.66699 10.0167 1.66699Z" stroke="#A73966" stroke-width="1.5" stroke-miterlimit="10" stroke-linecap="round"/>
<path d="M12.775 15.6836C12.775 17.2086 11.525 18.4586 10 18.4586C9.24167 18.4586 8.54167 18.1419 8.04167 17.6419C7.54167 17.1419 7.22501 16.4419 7.22501 15.6836" stroke="#A73966" stroke-width="1.5" stroke-miterlimit="10"/>
</svg>
