<svg width="16" height="16" viewBox="0 0 16 16" fill="none" xmlns="http://www.w3.org/2000/svg">
<path d="M4.40039 0.299805H10.8008C10.8492 0.299805 10.8954 0.319358 10.9297 0.353516L15.2471 4.6709C15.2813 4.70514 15.3007 4.75139 15.3008 4.7998V14.4004C15.3006 15.1181 14.7187 15.7001 14.001 15.7002H4.40039C3.68273 15.7 3.1008 15.1181 3.10059 14.4004V1.59961C3.1008 0.881949 3.68273 0.300016 4.40039 0.299805Z" fill="white" stroke="#D0D5DD" stroke-width="0.6"/>
<path d="M10.8008 0.199219V3.19922C10.8008 4.08287 11.5171 4.79922 12.4008 4.79922H15.4008" stroke="#D0D5DD" stroke-width="0.6"/>
<rect x="0.400391" y="7.09961" width="10.4" height="6.6" rx="0.8" fill="#D92D20"/>
<path d="M1.93253 11.9004V8.9913H3.08026C3.3009 8.9913 3.48887 9.03344 3.64418 9.11772C3.79948 9.20105 3.91785 9.31706 3.99929 9.46573C4.08168 9.61346 4.12287 9.78391 4.12287 9.9771C4.12287 10.1703 4.0812 10.3407 3.99787 10.4885C3.91454 10.6362 3.7938 10.7512 3.63565 10.8336C3.47846 10.916 3.28812 10.9572 3.06463 10.9572H2.3331V10.4643H2.9652C3.08357 10.4643 3.18111 10.444 3.25781 10.4032C3.33546 10.3616 3.39323 10.3043 3.43111 10.2314C3.46993 10.1575 3.48935 10.0727 3.48935 9.9771C3.48935 9.8805 3.46993 9.79622 3.43111 9.72425C3.39323 9.65134 3.33546 9.59499 3.25781 9.55522C3.18016 9.5145 3.08168 9.49414 2.96236 9.49414H2.54759V11.9004H1.93253ZM5.55362 11.9004H4.52237V8.9913H5.56214C5.85476 8.9913 6.10665 9.04954 6.31783 9.16602C6.529 9.28155 6.69141 9.44774 6.80504 9.6646C6.91963 9.88145 6.97692 10.1409 6.97692 10.443C6.97692 10.746 6.91963 11.0065 6.80504 11.2243C6.69141 11.4421 6.52805 11.6092 6.31499 11.7257C6.10286 11.8422 5.84908 11.9004 5.55362 11.9004ZM5.13743 11.3734H5.52805C5.70987 11.3734 5.86281 11.3412 5.98686 11.2768C6.11186 11.2115 6.20561 11.1106 6.26811 10.9743C6.33156 10.8369 6.36328 10.6599 6.36328 10.443C6.36328 10.228 6.33156 10.0524 6.26811 9.91602C6.20561 9.77965 6.11233 9.67927 5.98828 9.61488C5.86423 9.55049 5.71129 9.51829 5.52947 9.51829H5.13743V11.3734ZM7.43253 11.9004V8.9913H9.35866V9.4984H8.04759V10.1916H9.23082V10.6987H8.04759V11.9004H7.43253Z" fill="white"/>
</svg>
