<svg width="20" height="20" viewBox="0 0 20 20" fill="none" xmlns="http://www.w3.org/2000/svg">
<path d="M18.3333 5.00033V7.01699C18.3333 8.33366 17.5 9.16699 16.1833 9.16699H13.3333V3.34199C13.3333 2.41699 14.0917 1.66699 15.0167 1.66699C15.925 1.67533 16.7583 2.04199 17.3583 2.64199C17.9583 3.25032 18.3333 4.08366 18.3333 5.00033Z" stroke="#545D66" stroke-width="1.5" stroke-miterlimit="10" stroke-linecap="round" stroke-linejoin="round"/>
<path d="M1.66666 5.83366V17.5003C1.66666 18.192 2.44999 18.5837 2.99999 18.167L4.42499 17.1003C4.75832 16.8503 5.22499 16.8837 5.52499 17.1837L6.90832 18.5753C7.23332 18.9003 7.76666 18.9003 8.09166 18.5753L9.49166 17.1753C9.78332 16.8837 10.25 16.8503 10.575 17.1003L12 18.167C12.55 18.5753 13.3333 18.1837 13.3333 17.5003V3.33366C13.3333 2.41699 14.0833 1.66699 15 1.66699H5.83332H4.99999C2.49999 1.66699 1.66666 3.15866 1.66666 5.00033V5.83366Z" stroke="#545D66" stroke-width="1.5" stroke-miterlimit="10" stroke-linecap="round" stroke-linejoin="round"/>
<path d="M7.5 10.8418H10" stroke="#545D66" stroke-width="1.5" stroke-linecap="round" stroke-linejoin="round"/>
<path d="M7.5 7.50879H10" stroke="#545D66" stroke-width="1.5" stroke-linecap="round" stroke-linejoin="round"/>
<path d="M4.99634 10.833H5.00382" stroke="#545D66" stroke-width="2" stroke-linecap="round" stroke-linejoin="round"/>
<path d="M4.99634 7.5H5.00382" stroke="#545D66" stroke-width="2" stroke-linecap="round" stroke-linejoin="round"/>
</svg>
