<svg width="74" height="60" viewBox="0 0 74 60" fill="none" xmlns="http://www.w3.org/2000/svg">
<path fill-rule="evenodd" clip-rule="evenodd" d="M67.081 48.0246H61.8893V53.2198H67.0846L67.081 48.0246ZM67.081 20.34L61.8893 20.3365V25.5317H67.0846L67.081 20.3365V20.34ZM60.8169 18.1987H68.1535C68.743 18.1987 69.2224 18.6781 69.2224 19.2676V26.6042C69.2224 27.1937 68.743 27.6731 68.1535 27.6731H60.8169C60.2274 27.6731 59.7479 27.1937 59.7479 26.6042V19.2676C59.7479 18.6781 60.2273 18.1987 60.8169 18.1987ZM67.081 34.1787L61.8893 34.1822V39.3775H67.0846L67.081 34.1822V34.1787ZM60.8169 32.0408H68.1535C68.743 32.0408 69.2224 32.5202 69.2224 33.1097V40.4428C69.2224 41.0323 68.743 41.5117 68.1535 41.5117H60.8169C60.2274 41.5117 59.7479 41.0323 59.7479 40.4428V33.1097C59.7479 32.5203 60.2273 32.0408 60.8169 32.0408ZM31.3496 38.408L44.2259 43.1701C44.6272 43.3157 44.9007 43.6886 44.922 44.1147C44.9468 44.5409 44.7124 44.9386 44.3289 45.1268L39.2047 47.6375L36.7259 52.6872C36.5626 53.0991 36.1613 53.3655 35.7209 53.3584C35.277 53.3513 34.8829 53.0743 34.7337 52.6552L29.9787 39.7789C29.8367 39.3882 29.9326 38.9515 30.2273 38.6567C30.5185 38.3619 30.9589 38.266 31.3496 38.408ZM41.1541 44.3065L32.7912 41.217L35.8807 49.5799L37.4538 46.3697C37.5568 46.1602 37.7308 45.9862 37.9439 45.8832L41.1577 44.3065L41.1541 44.3065ZM25.4159 37.2042H9.40412V53.216H25.4159V37.2042ZM8.33503 35.0664H26.4887C26.7692 35.0664 27.0427 35.18 27.2451 35.3789C27.4439 35.5813 27.5576 35.8512 27.5576 36.1353V54.2889C27.5576 54.8784 27.0782 55.3578 26.4887 55.3578H8.33501C7.74552 55.3578 7.2661 54.8784 7.2661 54.2889V36.1353C7.2661 35.8512 7.37974 35.5813 7.5786 35.3789C7.78102 35.18 8.05094 35.0664 8.33503 35.0664ZM43.0187 20.34H9.40321V29.4737H43.0187V20.3364V20.34ZM8.33503 18.1987H44.0914C44.6809 18.1987 45.1603 18.6781 45.1603 19.2676V30.5421C45.1603 30.8262 45.0502 31.0996 44.8478 31.2985C44.6489 31.5009 44.3755 31.6146 44.0914 31.6146H8.33505C7.74556 31.6146 7.26614 31.1352 7.26614 30.5456V19.2675C7.26614 18.678 7.74552 18.1987 8.33503 18.1987ZM43.1469 4.87138C42.7172 4.44524 42.0496 4.38133 41.5453 4.71513C41.0446 5.05248 40.8493 5.69522 41.0801 6.25276C41.3109 6.81384 41.904 7.12989 42.497 7.01271C43.0901 6.89552 43.5162 6.37351 43.5197 5.7698C43.5197 5.43244 43.3848 5.10931 43.1469 4.87138ZM42.2484 2.3643C43.8749 2.36074 45.2775 3.50775 45.5936 5.1022C45.9132 6.69666 45.0609 8.29466 43.5588 8.91966C42.0567 9.5411 40.3237 9.01909 39.4217 7.66611C38.5161 6.31666 38.6901 4.51266 39.8407 3.36211C40.4799 2.72291 41.3464 2.36075 42.2484 2.3643ZM53.9638 4.87138C53.5376 4.44524 52.8665 4.38133 52.3622 4.71513C51.8615 5.05248 51.6662 5.69522 51.897 6.25276C52.1279 6.81384 52.7209 7.12989 53.3139 7.01271C53.907 6.89552 54.3367 6.37351 54.3367 5.7698C54.3367 5.43244 54.2017 5.10931 53.9638 4.87138ZM53.0689 2.3643C54.6918 2.36074 56.0944 3.50775 56.4105 5.1022C56.7301 6.69666 55.8779 8.29466 54.3757 8.91966C52.8736 9.5411 51.1406 9.01909 50.2386 7.66611C49.3331 6.31666 49.5106 4.51266 50.6576 3.36211C51.2968 2.72291 52.1633 2.36075 53.0689 2.3643ZM64.7808 4.87138C64.3547 4.44524 63.6835 4.38133 63.1828 4.71513C62.6785 5.05248 62.4832 5.69522 62.7141 6.25276C62.9449 6.81384 63.5415 7.12989 64.1345 7.01271C64.724 6.89552 65.1537 6.37351 65.1537 5.7698C65.1537 5.43244 65.0187 5.10931 64.7808 4.87138ZM63.8859 2.3643C65.5124 2.36074 66.9114 3.50775 67.2311 5.1022C67.5471 6.69666 66.6949 8.29466 65.1927 8.91966C63.6906 9.5411 61.9576 9.01909 61.0556 7.66611C60.1501 6.31666 60.3276 4.51266 61.4747 3.36211C62.1139 2.72291 62.9804 2.36075 63.8859 2.3643ZM73.364 12.9498V59.0653H0.636719V12.9498H73.364ZM0.636719 10.812V0.726562H73.364V10.812H0.636719ZM15.3985 23.8129C15.7643 23.8129 16.0768 24.0686 16.1478 24.4273C16.2189 24.7859 16.0271 25.1411 15.6933 25.2831C15.3559 25.4216 14.9688 25.3044 14.7665 24.999C14.564 24.6972 14.6031 24.2923 14.8588 24.0366C15.0044 23.891 15.1961 23.8129 15.3985 23.8129ZM13.346 22.5238C14.3332 21.5402 15.878 21.3946 17.0321 22.1758C18.1826 22.9606 18.6159 24.4486 18.0654 25.7269L18.6514 26.3129V26.3164C19.0704 26.7354 19.0704 27.4101 18.6514 27.8292C18.2323 28.2447 17.5577 28.2447 17.1386 27.8292L16.5526 27.2433V27.2397C15.2743 27.7937 13.7827 27.3605 12.9979 26.2064C12.2166 25.0558 12.3623 23.5075 13.346 22.5238ZM46.7942 40.3684H55.6862C55.9738 40.3755 56.2544 40.2689 56.4603 40.0665C56.6698 39.8641 56.787 39.5871 56.787 39.2995C56.787 39.0118 56.6698 38.7349 56.4603 38.5324C56.2544 38.33 55.9738 38.2199 55.6862 38.2306H46.7942C46.503 38.2199 46.2224 38.33 46.0165 38.5324C45.8105 38.7349 45.6933 39.0118 45.6933 39.2995C45.6933 39.5871 45.8105 39.8641 46.0165 40.0665C46.2224 40.269 46.503 40.3755 46.7942 40.3684ZM46.7942 35.3257H55.6862C56.2757 35.3257 56.7551 34.8463 56.7551 34.2568C56.7551 33.6673 56.2757 33.1879 55.6862 33.1879H46.7942C46.2011 33.1879 45.7253 33.6673 45.7253 34.2568C45.7253 34.8463 46.2011 35.3257 46.7942 35.3257ZM46.7942 54.2103H55.6862C55.9738 54.2209 56.2544 54.1109 56.4603 53.9084C56.6698 53.706 56.787 53.429 56.787 53.1414C56.787 52.8538 56.6698 52.5768 56.4603 52.3744C56.2544 52.1719 55.9738 52.0619 55.6862 52.0725H46.7942C46.503 52.0619 46.2224 52.1719 46.0165 52.3744C45.8105 52.5768 45.6933 52.8538 45.6933 53.1414C45.6933 53.429 45.8105 53.706 46.0165 53.9084C46.2224 54.1109 46.503 54.2209 46.7942 54.2103ZM46.7942 49.1677H55.6862C55.9738 49.1783 56.2544 49.0682 56.4603 48.8658C56.6698 48.6634 56.787 48.3864 56.787 48.0988C56.787 47.8111 56.6698 47.5341 56.4603 47.3317C56.2544 47.1293 55.9738 47.0192 55.6862 47.0299H46.7942C46.503 47.0192 46.2224 47.1293 46.0165 47.3317C45.8105 47.5341 45.6933 47.8111 45.6933 48.0988C45.6933 48.3864 45.8105 48.6634 46.0165 48.8658C46.2224 49.0682 46.503 49.1783 46.7942 49.1677ZM50.4589 26.5258H55.6862C55.9738 26.5329 56.2544 26.4264 56.4603 26.224C56.6698 26.0216 56.787 25.7446 56.787 25.4569C56.787 25.1658 56.6698 24.8888 56.4603 24.6899C56.2544 24.4875 55.9738 24.3774 55.6862 24.3881H50.4589C49.8801 24.4023 49.422 24.8781 49.422 25.457C49.422 26.0358 49.8801 26.508 50.4589 26.5258ZM50.4589 21.4832H55.6862C55.9738 21.4939 56.2544 21.3838 56.4603 21.1814C56.6698 20.9789 56.787 20.702 56.787 20.4143C56.787 20.1267 56.6698 19.8497 56.4603 19.6473C56.2544 19.4448 55.9738 19.3348 55.6862 19.3454H50.4589C49.8801 19.3632 49.422 19.8355 49.422 20.4143C49.422 20.9932 49.8801 21.4654 50.4589 21.4832ZM60.818 45.8832H68.1546C68.7441 45.8832 69.2235 46.3626 69.2235 46.9521V54.2887C69.2235 54.8782 68.7441 55.3577 68.1546 55.3577H60.818C60.2285 55.3577 59.7491 54.8783 59.7491 54.2887V46.9521C59.7491 46.3626 60.2285 45.8832 60.818 45.8832Z" fill="#61213C"/>
</svg>
