<svg width="48" height="52" viewBox="0 0 48 52" fill="none" xmlns="http://www.w3.org/2000/svg">
<path fill-rule="evenodd" clip-rule="evenodd" d="M0.633793 21.2953L16.2833 47.1679C16.6315 46.1099 17.3842 45.1368 18.4648 44.4887L18.4675 44.4874C18.5124 44.4622 18.5525 44.4384 18.5899 44.4174C18.6456 44.3861 18.6864 44.3636 18.7136 44.3493L19.5643 43.8414L2.61259 15.3079C1.51915 16.0403 0.731713 17.0167 0.332553 18.032C-0.0768067 19.0731 -0.0700066 20.1475 0.448153 21.0111L0.454273 21.0206C0.466513 21.041 0.486234 21.0716 0.513434 21.1124C0.518194 21.1199 0.540634 21.1505 0.578714 21.2042C0.599794 21.2334 0.618153 21.264 0.633793 21.2953ZM25.8496 51.3812L26.1834 49.9954C26.1868 49.9811 26.1902 49.9668 26.1943 49.9519C26.2922 49.6105 26.6486 49.4133 26.9899 49.5112L28.2119 49.8628L27.3224 48.3654L25.8768 45.9324L23.4648 47.3651L24.9139 49.8043L24.9159 49.807L24.9173 49.8097L25.8502 51.3799L25.8496 51.3812ZM23.4838 49.9131L22.4244 50.5462C22.404 50.5571 22.3843 50.5686 22.3652 50.5816C22.3204 50.6115 22.2898 50.6319 22.2755 50.6414C22.2394 50.6638 22.2088 50.6829 22.1837 50.6978C21.3602 51.1895 20.4422 51.3384 19.6235 51.182C18.8313 51.0303 18.135 50.5904 17.7222 49.8981C17.306 49.2039 17.2476 48.3824 17.4883 47.614C17.7372 46.8198 18.3016 46.084 19.1216 45.5944L19.1244 45.5931C19.1522 45.5754 19.1842 45.5563 19.2196 45.5366C19.2359 45.5278 19.2678 45.5101 19.3141 45.4856C19.3345 45.4748 19.3535 45.4632 19.3719 45.451L44.5713 30.3964L44.9086 30.1958L47.957 35.2917L28.0956 47.1571L26.6506 44.7247C26.4697 44.4201 26.0753 44.3194 25.7707 44.501L22.2544 46.5899C21.9498 46.7708 21.8491 47.1652 22.0307 47.4699L23.4825 49.9138L23.4838 49.9131ZM10.8284 16.4693L25.2219 7.91835C25.5279 7.73679 25.9237 7.83743 26.1052 8.14343L29.8296 14.4123C30.0112 14.7183 29.9105 15.1141 29.6045 15.2957L15.211 23.8467C14.905 24.0282 14.5092 23.9276 14.3276 23.6216L10.6033 17.3527C10.4217 17.0467 10.5224 16.6509 10.8284 16.4693ZM27.4142 21.3517C27.164 21.3109 26.9274 21.4816 26.8872 21.7319C26.8675 21.8522 26.8968 21.9692 26.96 22.063L31.7288 30.2244C31.8574 30.4427 32.1382 30.5154 32.3565 30.3869C32.4265 30.3461 32.4809 30.289 32.5197 30.2237L33.6845 28.2966L36.3297 29.9435C36.533 30.0707 36.7969 30.019 36.939 29.832L38.4173 27.8872C38.571 27.6853 38.5316 27.3963 38.3296 27.2426C38.3126 27.2297 38.2949 27.2181 38.2766 27.2079L35.7211 25.5004L37.4667 23.7059C37.6442 23.5243 37.6408 23.2333 37.4592 23.0558C37.3851 22.9837 37.2926 22.9409 37.1974 22.9287L27.4142 21.3517ZM17.642 26.0097C17.4237 26.1396 17.1408 26.0675 17.0109 25.8493C16.881 25.631 16.9531 25.3481 17.1714 25.2182L29.8078 17.711C30.0261 17.5811 30.309 17.6532 30.4389 17.8715C30.5688 18.0898 30.4967 18.3727 30.2784 18.5025L17.642 26.0097ZM27.3326 0.617188L44.2476 29.0895L20.6346 43.1179L3.71963 14.6456L27.3326 0.617188Z" fill="#61213C"/>
</svg>
