<svg width="32" height="32" viewBox="0 0 32 32" fill="none" xmlns="http://www.w3.org/2000/svg">
<path fill-rule="evenodd" clip-rule="evenodd" d="M16.7741 21.8473H15.2267C15.0383 21.8473 14.8852 21.6945 14.8852 21.5059C14.8852 21.3173 15.0383 21.1645 15.2267 21.1645H16.7741C16.9627 21.1645 17.1156 21.3173 17.1156 21.5059C17.1156 21.6945 16.9627 21.8473 16.7741 21.8473ZM6.19948 20.4484V21.4983C6.19948 22.275 6.82956 22.9048 7.60659 22.9048H24.3942C25.1715 22.9048 25.8016 22.275 25.8016 21.4983V20.4484H6.19948ZM11.4188 26.3293H20.5823C21.0535 26.3293 21.439 26.7146 21.439 27.1854C21.439 27.6564 21.0535 28.0416 20.5823 28.0416H11.4188C10.9478 28.0416 10.5621 27.6564 10.5621 27.1854C10.5621 26.7146 10.9478 26.3293 11.4188 26.3293ZM13.0614 25.6466C13.2566 25.0539 13.4011 24.3187 13.4463 23.5875H18.5152C18.5688 24.3187 18.7262 25.0539 18.93 25.6466H13.0614ZM16.0005 11.039C14.8513 11.039 13.9197 10.1079 13.9197 8.95919C13.9197 7.81049 14.8513 6.87943 16.0005 6.87943C17.1498 6.87943 18.0813 7.81049 18.0813 8.95919C18.0813 10.1079 17.1498 11.039 16.0005 11.039ZM20.0467 8.242C19.194 8.242 18.766 7.20924 19.3689 6.60664C19.4801 6.49554 19.4801 6.3153 19.3689 6.20446L18.7566 5.59218C18.6455 5.48108 18.4654 5.48108 18.3542 5.59218C17.7513 6.19505 16.7181 5.76731 16.7181 4.9148C16.7181 4.75769 16.5905 4.63044 16.4336 4.63044H15.5675C15.4103 4.63044 15.283 4.75769 15.283 4.9148C15.283 5.76731 14.2497 6.19505 13.6468 5.59218C13.5357 5.48108 13.3556 5.48108 13.2445 5.59218L12.6319 6.20446C12.521 6.3153 12.521 6.49554 12.6319 6.60664C13.235 7.20924 12.8071 8.242 11.9542 8.242C11.797 8.242 11.6697 8.36924 11.6697 8.52635V9.39204C11.6697 9.54888 11.797 9.67639 11.9542 9.67639C12.8071 9.67639 13.235 10.7089 12.6319 11.3117C12.521 11.4226 12.521 11.6028 12.6319 11.7139L13.2445 12.3259C13.3556 12.437 13.5357 12.437 13.6468 12.3259C14.2505 11.7225 15.283 12.15 15.283 13.0033C15.283 13.1604 15.4103 13.2877 15.5675 13.2877H16.4336C16.5905 13.2877 16.7181 13.1604 16.7181 13.0033C16.7181 12.1511 17.7513 11.7233 18.3542 12.3259C18.4654 12.437 18.6455 12.437 18.7566 12.3259L19.3689 11.7139C19.4801 11.6028 19.4801 11.4226 19.3689 11.3117C18.766 10.7089 19.194 9.67639 20.0467 9.67639C20.2038 9.67639 20.3311 9.54888 20.3311 9.39204V8.52635C20.3311 8.36924 20.2038 8.242 20.0467 8.242ZM26.9035 6.43097C27.35 6.43097 27.7117 6.7928 27.7117 7.23883C27.7117 7.68513 27.35 8.04696 26.9035 8.04696C26.457 8.04696 26.0952 7.68513 26.0952 7.23883C26.0952 6.7928 26.457 6.43097 26.9035 6.43097ZM5.09759 6.43097C4.65107 6.43097 4.28906 6.7928 4.28906 7.23883C4.28906 7.68513 4.65107 8.04696 5.09759 8.04696C5.54383 8.04696 5.90584 7.68513 5.90584 7.23883C5.90584 6.7928 5.54383 6.43097 5.09759 6.43097ZM4.75577 5.78749V4.63044C4.75577 4.44186 4.90891 4.28906 5.09759 4.28906H11.6699C11.7652 4.28906 11.8513 4.32807 11.9135 4.39129L12.6967 5.17413L12.2136 5.65674L11.5284 4.97183H5.43914V5.78749C5.2152 5.7353 4.9797 5.7353 4.75577 5.78749ZM26.5619 5.78749V4.97183H20.4727L19.7872 5.65674L19.3043 5.17413L20.0876 4.39129C20.1495 4.32807 20.2356 4.28906 20.3311 4.28906H26.9035C27.0922 4.28906 27.245 4.44186 27.245 4.63044V5.78749C27.0214 5.7353 26.7856 5.7353 26.5619 5.78749ZM24.7678 8.84513C25.3387 8.84513 25.8016 9.30784 25.8016 9.87843V19.7656H6.19948V10.2516C6.19948 9.47463 6.82956 8.84513 7.60659 8.84513H10.9866V9.39204C10.9866 9.92577 11.4202 10.3592 11.9542 10.3592C12.2004 10.3592 12.3229 10.6548 12.1487 10.8289C11.7711 11.2063 11.7711 11.8191 12.1487 12.1965L12.2136 12.2614L9.86233 14.6112C9.79935 14.6734 9.76032 14.7595 9.76032 14.8547V16.7973C9.48471 16.9261 9.29362 17.2056 9.29362 17.5298C9.29362 17.9758 9.65562 18.3377 10.1019 18.3377C10.5484 18.3377 10.9101 17.9758 10.9101 17.5298C10.9101 17.2056 10.7193 16.9261 10.4434 16.7973V14.9962L12.6967 12.744L12.7613 12.8088C13.1389 13.1863 13.7521 13.1863 14.1297 12.8088C14.3046 12.634 14.5999 12.7564 14.5999 13.0033C14.5999 13.5373 15.0332 13.9704 15.5675 13.9704H15.659V16.7973C15.3834 16.9261 15.1923 17.2056 15.1923 17.5298C15.1923 17.9758 15.554 18.3377 16.0005 18.3377C16.4468 18.3377 16.8088 17.9758 16.8088 17.5298C16.8088 17.2056 16.6177 16.9261 16.3421 16.7973V13.9704H16.4336C16.9676 13.9704 17.4012 13.5373 17.4012 13.0033C17.4012 12.7574 17.6973 12.6348 17.8711 12.8088C18.249 13.1863 18.8619 13.1863 19.2397 12.8088L19.3043 12.744L21.5574 14.9962V16.7973C21.2818 16.9261 21.0907 17.2056 21.0907 17.5298C21.0907 17.9758 21.4527 18.3377 21.8989 18.3377C22.3455 18.3377 22.7075 17.9758 22.7075 17.5298C22.7075 17.2056 22.5164 16.9261 22.2405 16.7973V14.8547C22.2405 14.7595 22.2015 14.6734 22.1385 14.6112L19.7875 12.2614L19.8521 12.1965C20.2297 11.8191 20.2297 11.2063 19.8521 10.8289C19.6779 10.6548 19.8006 10.3592 20.0467 10.3592C20.5809 10.3592 21.0145 9.92577 21.0145 9.39204V8.84513H24.7678Z" fill="#383E44"/>
</svg>
