<svg width="32" height="32" viewBox="0 0 32 32" fill="none" xmlns="http://www.w3.org/2000/svg">
<path d="M18.8846 2.88086H6.83789V5.65217H18.8846V2.88086Z" fill="#383E44"/>
<path d="M8.76117 20.8015C8.76148 20.7498 8.77204 20.6987 8.79224 20.6511C8.81243 20.6035 8.84186 20.5604 8.87882 20.5243C8.91578 20.4882 8.95954 20.4598 9.00756 20.4406C9.05559 20.4215 9.10692 20.4122 9.1586 20.413H14.1054C14.4491 19.3327 15.0399 18.3475 15.8308 17.5354V14.803C15.8304 14.7519 15.8403 14.7012 15.8599 14.6539C15.8794 14.6067 15.9083 14.5638 15.9447 14.5279C15.9811 14.492 16.0244 14.4638 16.0719 14.4449C16.1194 14.426 16.1703 14.4168 16.2214 14.4179H19.6095C19.6615 14.4165 19.7133 14.4254 19.7618 14.444C19.8104 14.4625 19.8548 14.4905 19.8926 14.5263C19.9303 14.562 19.9607 14.6049 19.9819 14.6524C20.0031 14.6999 20.0147 14.7511 20.0161 14.803V15.3867C20.3674 15.3342 20.7222 15.3079 21.0774 15.3083C21.1413 15.3083 21.2038 15.3091 21.2603 15.3108V6.44336H4.40625V25.8991H8.76117V20.8015ZM15.8308 9.4409C15.8308 9.3359 15.8725 9.2352 15.9468 9.16095C16.021 9.08671 16.1217 9.045 16.2267 9.045H19.6202C19.7252 9.045 19.8259 9.08671 19.9001 9.16095C19.9744 9.2352 20.0161 9.3359 20.0161 9.4409V13.004C20.0161 13.109 19.9744 13.2097 19.9001 13.284C19.8259 13.3582 19.7252 13.3999 19.6202 13.3999H16.2267C16.1217 13.3999 16.021 13.3582 15.9468 13.284C15.8725 13.2097 15.8308 13.109 15.8308 13.004V9.4409ZM10.7407 9.4409C10.7407 9.3359 10.7824 9.2352 10.8566 9.16095C10.9309 9.08671 11.0316 9.045 11.1366 9.045H14.53C14.635 9.045 14.7357 9.08671 14.81 9.16095C14.8842 9.2352 14.9259 9.3359 14.9259 9.4409V13.004C14.9259 13.109 14.8842 13.2097 14.81 13.284C14.7357 13.3582 14.635 13.3999 14.53 13.3999H11.1366C11.0316 13.3999 10.9309 13.3582 10.8566 13.284C10.7824 13.2097 10.7407 13.109 10.7407 13.004V9.4409ZM10.7407 14.8138C10.7407 14.7088 10.7824 14.6081 10.8566 14.5339C10.9309 14.4597 11.0316 14.4179 11.1366 14.4179H14.53C14.635 14.4179 14.7357 14.4597 14.81 14.5339C14.8842 14.6081 14.9259 14.7088 14.9259 14.8138V18.377C14.9259 18.482 14.8842 18.5827 14.81 18.6569C14.7357 18.7312 14.635 18.7729 14.53 18.7729H11.1366C11.0316 18.7729 10.9309 18.7312 10.8566 18.6569C10.7824 18.5827 10.7407 18.482 10.7407 18.377V14.8138ZM5.65051 9.4409C5.65051 9.3359 5.69222 9.2352 5.76647 9.16095C5.84071 9.08671 5.94141 9.045 6.04641 9.045H9.43986C9.54485 9.045 9.64555 9.08671 9.7198 9.16095C9.79405 9.2352 9.83576 9.3359 9.83576 9.4409V13.004C9.83576 13.109 9.79405 13.2097 9.7198 13.284C9.64555 13.3582 9.54485 13.3999 9.43986 13.3999H6.04641C5.94141 13.3999 5.84071 13.3582 5.76647 13.284C5.69222 13.2097 5.65051 13.109 5.65051 13.004V9.4409ZM5.65051 18.377V14.8138C5.65051 14.7088 5.69222 14.6081 5.76647 14.5339C5.84071 14.4597 5.94141 14.4179 6.04641 14.4179H9.43986C9.54485 14.4179 9.64555 14.4597 9.7198 14.5339C9.79405 14.6081 9.83576 14.7088 9.83576 14.8138V18.377C9.83576 18.482 9.79405 18.5827 9.7198 18.6569C9.64555 18.7312 9.54485 18.7729 9.43986 18.7729H6.04641C5.94141 18.7729 5.84071 18.7312 5.76647 18.6569C5.69222 18.5827 5.65051 18.482 5.65051 18.377Z" fill="#383E44"/>
<path d="M19.2247 15.5498V15.2109H16.623V16.8294C17.3925 16.2276 18.2783 15.7919 19.2247 15.5498Z" fill="#383E44"/>
<path d="M14.1339 15.2109H11.5322V17.9822H14.1339V15.2109Z" fill="#383E44"/>
<path d="M14.1339 9.83789H11.5322V12.6092H14.1339V9.83789Z" fill="#383E44"/>
<path d="M19.2247 9.83789H16.623V12.6092H19.2247V9.83789Z" fill="#383E44"/>
<path d="M9.04402 15.2109H6.44238V17.9822H9.04402V15.2109Z" fill="#383E44"/>
<path d="M9.04402 9.83789H6.44238V12.6092H9.04402V9.83789Z" fill="#383E44"/>
<path d="M24.496 24.4509C24.856 24.4509 25.2617 24.3159 25.4369 23.9766H23.5615C23.7298 24.3159 24.1226 24.4509 24.496 24.4509Z" fill="#383E44"/>
<path d="M9.55273 21.2051V25.8993H14.5407C13.8098 24.4498 13.5847 22.7974 13.9012 21.2051H9.55273Z" fill="#383E44"/>
<path d="M21.6228 16.1246H21.6204C21.4404 16.1097 21.2584 16.1016 21.0747 16.1016C19.3682 16.101 17.7295 16.7691 16.5099 17.9626C15.2902 19.1561 14.5868 20.7799 14.5503 22.486C14.5139 24.192 15.1474 25.8444 16.3149 27.0889C17.4825 28.3334 19.0912 29.0708 20.7961 29.1431C22.501 29.2155 24.1664 28.6169 25.4352 27.4757C26.7039 26.3346 27.475 24.7417 27.5832 23.0387C27.6913 21.3357 27.1279 19.6581 26.0136 18.3656C24.8994 17.0732 23.3231 16.2687 21.6228 16.1248V16.1246ZM26.3166 23.5688C26.3166 24.5318 25.5508 25.2308 24.4954 25.2308C23.4292 25.2308 22.6846 24.5474 22.6846 23.5688C22.6846 23.5 22.7026 23.4325 22.7367 23.3728C22.7708 23.3131 22.8198 23.2634 22.879 23.2284L23.9079 20.4708H21.8876C21.789 20.6208 21.6497 20.7396 21.4861 20.8134V25.561H21.9753C22.0803 25.561 22.181 25.6027 22.2552 25.677C22.3295 25.7512 22.3712 25.8519 22.3712 25.9569C22.3712 26.0619 22.3295 26.1626 22.2552 26.2369C22.181 26.3111 22.0803 26.3528 21.9753 26.3528H20.174C20.069 26.3528 19.9683 26.3111 19.894 26.2369C19.8198 26.1626 19.778 26.0619 19.778 25.9569C19.778 25.8519 19.8198 25.7512 19.894 25.677C19.9683 25.6027 20.069 25.561 20.174 25.561H20.6943V20.8134C20.5218 20.7404 20.3724 20.6221 20.2619 20.4708H18.2414L19.2701 23.2284C19.3293 23.2633 19.3784 23.3131 19.4125 23.3728C19.4466 23.4325 19.4645 23.5 19.4646 23.5688C19.4646 24.5318 18.6987 25.2308 17.6434 25.2308C16.5772 25.2308 15.8326 24.5474 15.8326 23.5688C15.8325 23.5026 15.8491 23.4375 15.8808 23.3795C15.9125 23.3214 15.9582 23.2722 16.0139 23.2364L17.2726 19.8624C17.274 19.8583 17.276 19.8546 17.2776 19.8507C17.2804 19.844 17.2832 19.8374 17.2861 19.8309C17.289 19.8244 17.2918 19.8196 17.295 19.8139C17.2982 19.8083 17.301 19.8026 17.3043 19.7973C17.3076 19.792 17.3115 19.786 17.3156 19.7803C17.3197 19.7747 17.3223 19.7704 17.3259 19.7655C17.3295 19.7607 17.3342 19.7548 17.3385 19.7496C17.3428 19.7444 17.3464 19.7401 17.3506 19.7355C17.3547 19.7309 17.3593 19.7262 17.3638 19.7216C17.3684 19.7171 17.3732 19.7124 17.3782 19.7079C17.3832 19.7034 17.3872 19.7 17.3918 19.6962C17.3964 19.6924 17.4026 19.6875 17.4082 19.6833C17.4138 19.6791 17.4177 19.6765 17.4227 19.6732C17.4276 19.6699 17.434 19.6655 17.4401 19.6619C17.4462 19.6583 17.4511 19.6557 17.4567 19.6527C17.4623 19.6497 17.468 19.6466 17.4737 19.6439C17.4793 19.6411 17.4871 19.6382 17.4939 19.6352C17.4977 19.6336 17.5013 19.6317 17.5052 19.6302C17.5067 19.6297 17.5081 19.6294 17.5095 19.6289C17.5168 19.6262 17.5243 19.624 17.5318 19.6218C17.5369 19.6203 17.5421 19.6186 17.5473 19.6173C17.5544 19.6155 17.5616 19.6142 17.5688 19.6128C17.5745 19.6117 17.5801 19.6104 17.5858 19.6095C17.5926 19.6086 17.5994 19.6081 17.6062 19.6074C17.6131 19.6067 17.6183 19.606 17.6243 19.6057C17.6304 19.6055 17.6377 19.6057 17.6444 19.6057C17.6512 19.6057 17.6568 19.6057 17.6629 19.6057C17.669 19.6057 17.6758 19.6069 17.6823 19.6076C17.6888 19.6082 17.6952 19.6086 17.7015 19.6096C17.7078 19.6106 17.7134 19.6119 17.7194 19.613C17.7262 19.6143 17.7331 19.6156 17.7399 19.6173C17.7455 19.6186 17.7506 19.6204 17.756 19.622C17.7633 19.6242 17.7705 19.6263 17.7777 19.6289C17.7791 19.6294 17.7806 19.6297 17.7821 19.6303C17.7861 19.6318 17.7898 19.6337 17.7937 19.6353C17.8004 19.638 17.807 19.641 17.8135 19.6439C17.82 19.6467 17.8252 19.6495 17.8309 19.6529C17.8367 19.6562 17.8419 19.6585 17.8472 19.6619C17.8525 19.6653 17.8591 19.6694 17.8649 19.6732C17.8681 19.6753 17.8713 19.6772 17.8744 19.6794H20.1111C20.1619 19.4619 20.2847 19.2679 20.4597 19.1291C20.6347 18.9903 20.8515 18.9147 21.0749 18.9147C21.2983 18.9147 21.5151 18.9903 21.69 19.1291C21.865 19.2679 21.9879 19.4619 22.0387 19.6794H24.2753C24.2784 19.6772 24.2816 19.6753 24.2847 19.6732C24.2904 19.6693 24.2965 19.6654 24.3025 19.6619C24.3086 19.6584 24.3133 19.6558 24.3188 19.6529C24.3242 19.6499 24.3301 19.6467 24.3362 19.6439C24.3424 19.641 24.3494 19.6382 24.356 19.6353C24.3599 19.6337 24.3636 19.6318 24.3676 19.6303C24.3691 19.6297 24.3706 19.6294 24.372 19.6289C24.3792 19.6263 24.3865 19.6241 24.3939 19.622C24.3991 19.6204 24.4044 19.6186 24.4098 19.6173C24.4167 19.6156 24.4238 19.6143 24.4309 19.6129C24.4366 19.6118 24.4422 19.6104 24.4479 19.6096C24.4546 19.6086 24.4613 19.6081 24.4682 19.6074C24.475 19.6068 24.4803 19.6061 24.4864 19.6058C24.4925 19.6055 24.4998 19.6058 24.5065 19.6058C24.5131 19.6058 24.5188 19.6058 24.5249 19.6058C24.531 19.6058 24.538 19.607 24.5445 19.6076C24.5511 19.6082 24.5572 19.6087 24.5635 19.6096C24.5698 19.6106 24.5755 19.6119 24.5816 19.6131C24.5876 19.6143 24.5952 19.6156 24.6019 19.6173C24.6075 19.6187 24.6127 19.6205 24.6182 19.6221C24.6254 19.6242 24.6327 19.6264 24.6397 19.6289C24.6412 19.6295 24.6427 19.6298 24.6441 19.6303C24.6481 19.6318 24.6518 19.6337 24.6554 19.6354C24.6621 19.6381 24.6688 19.641 24.6753 19.6439C24.6818 19.6468 24.687 19.6496 24.6927 19.6529C24.6984 19.6562 24.7036 19.6586 24.7089 19.662C24.7143 19.6654 24.7209 19.6694 24.7267 19.6733C24.7315 19.6765 24.7363 19.6797 24.741 19.6832C24.7466 19.6874 24.7523 19.6918 24.7575 19.6962C24.7621 19.7 24.7666 19.7038 24.771 19.7075C24.7754 19.7113 24.7807 19.7167 24.7854 19.7213C24.7901 19.726 24.7943 19.7305 24.7986 19.7352C24.8029 19.74 24.8068 19.7445 24.8107 19.7493C24.8146 19.7541 24.8192 19.7597 24.8233 19.7652C24.8274 19.7707 24.8303 19.775 24.8336 19.78C24.8369 19.785 24.8412 19.7913 24.8449 19.7973C24.8486 19.8033 24.8511 19.8083 24.8541 19.8138C24.8571 19.8194 24.8602 19.8251 24.863 19.8311C24.8658 19.837 24.8687 19.8442 24.8716 19.8508C24.8731 19.8548 24.8751 19.8585 24.8766 19.8626L26.1354 23.2365C26.191 23.2723 26.2367 23.3215 26.2683 23.3795C26.3 23.4376 26.3166 23.5027 26.3166 23.5688Z" fill="#383E44"/>
<path d="M23.7451 23.1858H25.2666L24.5059 21.1465L23.7451 23.1858Z" fill="#383E44"/>
<path d="M17.6435 24.4509C18.0034 24.4509 18.4092 24.3159 18.5843 23.9766H16.709C16.8772 24.3159 17.27 24.4509 17.6435 24.4509Z" fill="#383E44"/>
<path d="M16.8828 23.1858H18.4043L17.6436 21.1465L16.8828 23.1858Z" fill="#383E44"/>
<path d="M21.0751 19.7051C21.0357 19.7051 20.9972 19.7168 20.9645 19.7387C20.9317 19.7605 20.9062 19.7917 20.8911 19.8281C20.876 19.8645 20.8721 19.9045 20.8798 19.9431C20.8875 19.9818 20.9065 20.0173 20.9344 20.0451C20.9623 20.0729 20.9978 20.0919 21.0364 20.0996C21.075 20.1072 21.1151 20.1032 21.1515 20.0881C21.1879 20.073 21.2189 20.0475 21.2408 20.0147C21.2627 19.9819 21.2743 19.9434 21.2743 19.904C21.2741 19.8512 21.2531 19.8007 21.2158 19.7634C21.1785 19.7261 21.1279 19.7051 21.0751 19.7051Z" fill="#383E44"/>
</svg>
