<svg width="32" height="32" viewBox="0 0 32 32" fill="none" xmlns="http://www.w3.org/2000/svg">
<path d="M10.6489 25.6055C10.7983 25.7923 11.0971 25.7923 11.2465 25.6055L13.2634 23.0658L17.073 25.6802C17.3718 25.9043 17.7827 25.5682 17.6333 25.232L12.0308 11.861C12.5164 11.5248 12.8152 10.9646 12.8152 10.367C12.8152 9.35856 11.9935 8.57422 11.0224 8.57422C10.0513 8.57422 9.11759 9.39591 9.11759 10.367C9.11759 10.9646 9.41639 11.5248 9.90193 11.8236C2.20795 30.1622 4.85976 23.8501 4.26217 25.232C4.11277 25.5682 4.52362 25.9043 4.82241 25.6802L8.63205 23.0658L10.6489 25.6055ZM8.70675 16.679L10.5742 19.0321V20.8248L8.8188 22.02L7.25012 20.0778L8.70675 16.679ZM14.608 20.0778L13.0766 22.0574L11.3212 20.8248V19.0321L13.1887 16.6417L14.608 20.0778ZM11.3212 17.8369V12.1971L12.8525 15.8574L11.3212 17.8369ZM10.9477 24.7839L9.26699 22.6549L10.9477 21.4971L12.6284 22.6549L10.9477 24.7839ZM13.6742 22.4682L14.9441 20.8622L16.4007 24.3357L13.6742 22.4682ZM9.86458 10.367C9.86458 9.7694 10.3501 9.32121 10.9104 9.32121C11.4706 9.32121 11.9561 9.80675 11.9561 10.367C11.9561 10.9646 11.4706 11.4128 10.9104 11.4128C10.4248 11.4501 9.86458 11.0019 9.86458 10.367ZM10.5742 12.2345V17.8369L9.04289 15.8947L10.5742 12.2345ZM8.18386 22.4682L5.45735 24.3357L6.91398 20.8622L8.18386 22.4682Z" fill="#383E44"/>
<path d="M22.1143 4.50391V9.54607H27.1938L22.1143 4.50391Z" fill="#383E44"/>
<path d="M21.7412 10.2928C21.5544 10.2928 21.3677 10.1434 21.3677 9.9193V4.24219H11.6569C11.0593 4.24219 10.5364 4.72773 10.5364 5.36267V7.86508C10.6484 7.82773 10.7978 7.82773 10.9099 7.82773C12.3291 7.82773 13.4496 8.98556 13.4496 10.3675C13.4496 11.0024 13.2255 11.6 12.8147 12.0482C16.9231 21.8338 15.7279 18.9579 18.2303 24.9338C18.6412 25.9422 17.4834 26.9133 16.5496 26.2783L13.3376 24.0747L11.7689 26.0542C11.4701 26.4651 10.9472 26.5771 10.499 26.4277V27.0253C10.499 27.6229 11.0219 28.1458 11.6195 28.1458H26.2978C26.9328 28.1458 27.4183 27.6229 27.4183 27.0253V10.2928H21.7412ZM14.9436 12.1976C14.7942 12.347 14.5701 12.347 14.4207 12.1976C14.2713 12.0482 14.2713 11.8241 14.4207 11.6747C15.1303 10.9651 15.1303 9.7699 14.4207 9.06026C14.2713 8.91086 14.2713 8.68677 14.4207 8.53737C14.5701 8.38797 14.7942 8.38797 14.9436 8.53737C15.952 9.5458 15.952 11.1892 14.9436 12.1976ZM15.9894 13.7663C15.84 13.6169 15.84 13.3928 15.9894 13.2434C17.5581 11.6747 17.5581 9.09761 15.9894 7.49159C15.84 7.34219 15.84 7.11809 15.9894 6.96869C16.1388 6.8193 16.3629 6.8193 16.5123 6.96869C18.3797 8.83616 18.3797 11.8988 16.5123 13.7663C16.4002 13.9157 16.1388 13.9157 15.9894 13.7663ZM24.1316 25.7554H19.6496C19.4255 25.7554 19.2761 25.5687 19.2761 25.3819C19.2761 25.1578 19.4255 25.0085 19.6496 25.0085H24.1316C24.3556 25.0085 24.505 25.1578 24.505 25.3819C24.505 25.5687 24.3556 25.7554 24.1316 25.7554ZM24.1316 21.7591H18.9026C18.6785 21.7591 18.5291 21.6097 18.5291 21.3856C18.5291 21.1615 18.6785 21.0121 18.9026 21.0121H24.1316C24.3556 21.0121 24.505 21.1615 24.505 21.3856C24.505 21.6097 24.3556 21.7591 24.1316 21.7591ZM24.1316 17.8H17.4087C17.1846 17.8 17.0352 17.6133 17.0352 17.4265C17.0352 17.2398 17.1846 17.053 17.4087 17.053H24.1316C24.3556 17.053 24.505 17.2398 24.505 17.4265C24.505 17.6133 24.3556 17.8 24.1316 17.8Z" fill="#383E44"/>
</svg>
