<svg width="32" height="32" viewBox="0 0 32 32" fill="none" xmlns="http://www.w3.org/2000/svg">
<path d="M28.2673 16.8693H22.5723V27.3992H29.3864V17.9885C29.3843 17.3713 28.8845 16.8714 28.2673 16.8693ZM27.0339 25.0988H24.9344V23.0024H27.0339V25.0988ZM27.0339 21.2669L24.9344 21.2658V19.1862H27.0339V21.2669Z" fill="#383E44"/>
<path d="M2.60943 17.9915V27.4022H9.42357V16.8691H3.73499C3.43685 16.8681 3.15022 16.9863 2.9389 17.1966C2.72759 17.4079 2.60943 17.6934 2.60943 17.9915ZM4.96836 19.1861H7.06472V21.2825H4.96836V19.1861ZM4.96836 23.0181H7.06472V25.1144H4.96836V23.0181Z" fill="#383E44"/>
<path d="M20.5438 10.5H20.0961C19.5563 11.4823 18.6807 12.2386 17.6305 12.6288C16.5792 13.02 15.4232 13.02 14.3719 12.6288C13.3216 12.2386 12.4461 11.4823 11.9063 10.5H11.4742C11.1761 10.499 10.8895 10.6172 10.6782 10.8274C10.4679 11.0388 10.3486 11.3243 10.3486 11.6225V27.3996H14.2821V22.6944H17.7217V27.3996H21.654V11.6225C21.654 11.0074 21.1592 10.5073 20.5441 10.5L20.5438 10.5ZM14.8071 20.6764H12.7107V18.58H14.8071V20.6764ZM14.8071 16.8476L12.7107 16.8466V14.7513H14.8071V16.8476ZM19.2916 20.6764H17.1953V18.58H19.2916V20.6764ZM19.2916 16.8476L17.1953 16.8466V14.7513H19.2916V16.8476Z" fill="#383E44"/>
<path d="M16.0019 12.0023C17.5229 12.0044 18.8955 11.088 19.478 9.68311C20.0617 8.27821 19.7405 6.65993 18.6651 5.58338C17.5898 4.50696 15.9713 4.18474 14.5665 4.76638C13.1605 5.34905 12.2441 6.72048 12.2441 8.2416C12.2441 10.317 13.9252 12.0012 16.0016 12.0023H16.0019ZM13.7298 7.87552C13.7298 7.67781 13.8899 7.51777 14.0865 7.51777H15.2874V6.31476C15.2895 6.11705 15.4496 5.95701 15.6473 5.95701H16.3806C16.5783 5.95701 16.7394 6.11706 16.7415 6.31476V7.50521H17.9424H17.9414C18.1391 7.50521 18.3002 7.66422 18.3023 7.86192V8.59837C18.3002 8.79608 18.1391 8.95612 17.9414 8.95612H16.7405V10.1602L16.7415 10.1591C16.7394 10.3568 16.5783 10.5169 16.3806 10.5169H15.6347C15.437 10.5169 15.2759 10.3568 15.2749 10.1591V8.96868H14.074C13.8773 8.96868 13.7172 8.80862 13.7172 8.61197L13.7298 7.87552Z" fill="#383E44"/>
</svg>
