<svg width="32" height="32" viewBox="0 0 32 32" fill="none" xmlns="http://www.w3.org/2000/svg">
<path fill-rule="evenodd" clip-rule="evenodd" d="M10.9565 23.6362C10.9565 24.6485 9.4375 24.6485 9.4375 23.6362C9.4375 22.6239 10.9565 22.6239 10.9565 23.6362Z" fill="#383E44"/>
<path fill-rule="evenodd" clip-rule="evenodd" d="M10.9565 19.8393C10.9565 20.8516 9.4375 20.8516 9.4375 19.8393C9.4375 18.827 10.9565 18.827 10.9565 19.8393Z" fill="#383E44"/>
<path fill-rule="evenodd" clip-rule="evenodd" d="M10.9565 16.0451C10.9565 17.0574 9.4375 17.0574 9.4375 16.0451C9.4375 15.0318 10.9565 15.0318 10.9565 16.0451Z" fill="#383E44"/>
<path fill-rule="evenodd" clip-rule="evenodd" d="M23.2324 24.9043H24.2427V25.9146H23.2324V24.9043Z" fill="#383E44"/>
<path fill-rule="evenodd" clip-rule="evenodd" d="M21.457 24.9043H22.4673V25.9146H21.457V24.9043Z" fill="#383E44"/>
<path fill-rule="evenodd" clip-rule="evenodd" d="M19.6875 24.9043H20.6978V25.9146H19.6875V24.9043Z" fill="#383E44"/>
<path fill-rule="evenodd" clip-rule="evenodd" d="M23.2324 23.1328H24.2427V24.1431H23.2324V23.1328Z" fill="#383E44"/>
<path fill-rule="evenodd" clip-rule="evenodd" d="M21.457 23.1328H22.4673V24.1431H21.457V23.1328Z" fill="#383E44"/>
<path fill-rule="evenodd" clip-rule="evenodd" d="M19.6875 23.1328H20.6978V24.1431H19.6875V23.1328Z" fill="#383E44"/>
<path fill-rule="evenodd" clip-rule="evenodd" d="M23.2324 21.3574H24.2427V22.3677H23.2324V21.3574Z" fill="#383E44"/>
<path fill-rule="evenodd" clip-rule="evenodd" d="M21.457 21.3574H22.4673V22.3677H21.457V21.3574Z" fill="#383E44"/>
<path fill-rule="evenodd" clip-rule="evenodd" d="M19.6875 21.3574H20.6978V22.3677H19.6875V21.3574Z" fill="#383E44"/>
<path fill-rule="evenodd" clip-rule="evenodd" d="M25.7619 19.0806V17.1816H18.1689V19.0806H25.7619Z" fill="#383E44"/>
<path fill-rule="evenodd" clip-rule="evenodd" d="M18.1689 27.4328H25.7619V19.8398H18.1689V27.4328ZM18.9279 22.7512V20.9789C18.9279 20.7702 19.0992 20.5989 19.3079 20.5989H24.6227C24.8314 20.5989 25.0027 20.7702 25.0027 20.9789V26.2937C25.0027 26.5024 24.8314 26.6737 24.6227 26.6737H21.0781L19.3079 26.6727C19.0991 26.6727 18.9279 26.5014 18.9279 26.2927L18.9279 22.7512Z" fill="#383E44"/>
<path fill-rule="evenodd" clip-rule="evenodd" d="M16.7735 7.03145C16.2111 6.5704 15.514 6.26741 14.752 6.19141V9.05296L16.7735 7.03145Z" fill="#383E44"/>
<path fill-rule="evenodd" clip-rule="evenodd" d="M18.1497 9.58994C18.0737 8.82792 17.7707 8.13076 17.3097 7.56836L15.2881 9.58994H18.1497Z" fill="#383E44"/>
<path fill-rule="evenodd" clip-rule="evenodd" d="M13.9931 6.19336C12.0779 6.38488 10.5762 8.00619 10.5762 9.97089C10.5762 12.0634 12.2796 13.7668 14.3721 13.7668C16.3369 13.7668 17.9582 12.2651 18.1496 10.3499H14.3568C14.3122 10.3479 14.2687 10.3387 14.2291 10.3225C14.1825 10.3043 14.1389 10.2769 14.1004 10.2415C14.0194 10.1604 13.9829 10.0499 13.991 9.94355L13.9931 6.19336Z" fill="#383E44"/>
<path fill-rule="evenodd" clip-rule="evenodd" d="M21.0505 6.93228L19.3086 5.19141V6.93228H21.0505Z" fill="#383E44"/>
<path fill-rule="evenodd" clip-rule="evenodd" d="M21.5856 16.4229V7.69116H18.9288C18.72 7.69116 18.5488 7.51991 18.5488 7.31117V4.6543L7.91895 4.65531V25.9147H17.4097V25.1558H12.854C12.6452 25.1558 12.474 24.9845 12.474 24.7758C12.474 24.567 12.6452 24.3958 12.854 24.3958H17.4097V22.8768H12.854C12.6452 22.8768 12.474 22.7056 12.474 22.4968C12.474 22.2881 12.6452 22.1168 12.854 22.1168H17.4097V21.3579H12.854C12.6452 21.3579 12.474 21.1866 12.474 20.9779C12.474 20.7691 12.6452 20.5979 12.854 20.5979H17.4097V19.0789H12.854C12.6452 19.0789 12.474 18.9077 12.474 18.6989C12.474 18.4902 12.6452 18.319 12.854 18.319H17.4097V17.18H12.854C12.6452 17.18 12.474 17.0087 12.474 16.8C12.474 16.5913 12.6452 16.42 12.854 16.42H17.7898L21.5856 16.4229ZM20.4467 15.8058H12.8538C12.645 15.8058 12.4738 15.6345 12.4738 15.4258C12.4738 15.2171 12.645 15.0458 12.8538 15.0458H20.4467C20.6554 15.0458 20.8267 15.2171 20.8267 15.4258C20.8257 15.6356 20.6554 15.8058 20.4467 15.8058ZM10.1969 17.5619C9.36189 17.5619 8.6779 16.8789 8.6779 16.0429C8.6779 15.2079 9.36088 14.5239 10.1969 14.5239C11.0319 14.5239 11.7159 15.2069 11.7159 16.0429C11.7148 16.8789 11.0319 17.5619 10.1969 17.5619ZM10.1969 21.3578C9.36189 21.3578 8.6779 20.6748 8.6779 19.8388C8.6779 19.0038 9.36088 18.3199 10.1969 18.3199C11.0319 18.3199 11.7159 19.0028 11.7159 19.8388C11.7148 20.6748 11.0319 21.3578 10.1969 21.3578ZM10.1969 25.1548C9.36189 25.1548 8.6779 24.4718 8.6779 23.6358C8.6779 22.8008 9.36088 22.1168 10.1969 22.1168C11.0319 22.1168 11.7159 22.7998 11.7159 23.6358C11.7148 24.4708 11.0319 25.1548 10.1969 25.1548ZM14.3729 14.525C11.8629 14.525 9.8171 12.4801 9.8171 9.96919C9.8171 7.45919 11.862 5.41343 14.3729 5.41343C16.8829 5.41343 18.9286 7.45831 18.9286 9.96919C18.9276 12.4802 16.8827 14.525 14.3729 14.525Z" fill="#383E44"/>
<path fill-rule="evenodd" clip-rule="evenodd" d="M17.4102 26.6723H7.53935C7.33061 26.6723 7.15937 26.501 7.15937 26.2923L7.16038 6.55273H6.40039V27.4321H17.4092L17.4102 26.6723Z" fill="#383E44"/>
</svg>
