<svg width="68" height="68" viewBox="0 0 68 68" fill="none" xmlns="http://www.w3.org/2000/svg">
<path d="M55.3654 47.88C55.5344 48.0828 55.602 48.3388 55.5585 48.5996L53.7861 58.6592C53.7378 58.92 53.5881 59.1374 53.3587 59.2726C53.1269 59.4078 52.8419 59.432 52.5884 59.3402C46.4742 57.15 39.8334 55.4162 32.8548 54.1847C25.886 52.9556 19.0569 52.3157 12.5611 52.2819C12.2882 52.2819 12.0322 52.1611 11.8608 51.9535C11.6918 51.7506 11.6242 51.4947 11.6676 51.2338L12.3365 47.4403C15.3719 48.0488 18.429 48.4496 21.4813 48.6186C18.1754 47.8193 14.9588 46.7617 11.8654 45.4697C11.8606 45.4673 11.8558 45.4697 11.8534 45.4673C11.851 45.4673 11.8485 45.4649 11.8461 45.4649L11.7326 45.4311L13.2008 40.9541C13.2757 40.7223 13.4375 40.5388 13.6548 40.4325C13.8745 40.3238 14.1257 40.3118 14.3623 40.3987C20.5491 42.6348 27.2792 44.4024 34.3617 45.6532C37.0663 46.129 39.7877 46.5201 42.4562 46.8172C42.915 47.2832 43.5042 47.6165 44.1658 47.7589C44.0717 49.3985 45.2211 50.9875 46.8848 51.4221C48.2323 51.8423 48.6525 49.7414 47.2567 49.6038C46.129 49.4806 45.7427 48.6934 45.6171 47.7493C46.0518 47.6527 46.4551 47.474 46.81 47.2277C49.4832 47.4305 52.125 47.544 54.6653 47.5561C54.9405 47.5561 55.1941 47.6768 55.3655 47.8821L55.3654 47.88ZM48.5895 35.9268V27.1276L45.8028 28.1876V36.9294C46.7108 36.6903 47.5994 36.4319 48.4519 36.1373C48.534 36.1084 48.5895 36.0238 48.5895 35.9248L48.5895 35.9268ZM28.3273 55.3513C28.0738 56.1409 27.8468 56.9426 27.6729 57.7516C27.3614 59.2101 27.1803 60.6976 27.1368 62.1899L30.5489 60.4175C30.8821 60.2436 31.2878 60.2871 31.5727 60.531L35.0307 63.448C35.0887 62.0596 35.2601 60.6759 35.5378 59.3164C35.7165 58.4471 35.9556 57.585 36.2236 56.7326C34.9993 56.4814 33.7775 56.2254 32.5314 56.0057C31.1212 55.757 29.723 55.5493 28.3273 55.3489L28.3273 55.3513ZM43.3306 44.4317C43.3306 45.2841 44.0236 45.9772 44.8761 45.9772C45.7285 45.9772 46.4215 45.2841 46.4215 44.4317C46.4215 43.5793 45.7285 42.8863 44.8761 42.8863C44.0236 42.8863 43.3306 43.5793 43.3306 44.4317ZM33.9998 32.1553C33.0918 32.1553 32.1839 31.9911 31.3194 31.6626L19.4095 27.1301V35.9293C19.4095 36.0283 19.465 36.1129 19.5471 36.1418C23.7971 37.6124 28.7933 38.3876 33.9971 38.3876C37.4599 38.3876 40.8262 38.0374 43.9462 37.3734V28.8975L36.6776 31.6648C35.8131 31.9932 34.9051 32.1575 33.9972 32.1575L33.9998 32.1553ZM58.1089 19.5116L36.0212 11.1031C35.3692 10.8544 34.6834 10.7312 34.0001 10.7312C33.3167 10.7312 32.6309 10.8544 31.9789 11.1031L9.89129 19.5116C9.24893 19.7555 9.19824 20.3423 9.19824 20.5161C9.19824 20.69 9.24895 21.2768 9.89129 21.5207L31.9814 29.9292C33.2854 30.4266 34.7198 30.4266 36.0238 29.9292L42.7588 27.3647L33.4935 21.2916C33.0637 21.0115 32.9454 20.4368 33.2279 20.0069C33.508 19.5771 34.0827 19.4564 34.5125 19.7389L44.9011 26.5488L58.1147 21.5188C58.7571 21.2749 58.8078 20.6881 58.8078 20.5143C58.8078 20.3404 58.7571 19.7536 58.1147 19.5097L58.1089 19.5116ZM43.9513 41.1578C44.2483 41.083 44.5574 41.0347 44.8785 41.0347C45.1997 41.0347 45.5088 41.083 45.8058 41.1578V38.8469L43.9513 39.2671V41.1578Z" fill="#61213C"/>
</svg>
