<svg width="68" height="68" viewBox="0 0 68 68" fill="none" xmlns="http://www.w3.org/2000/svg">
<path d="M15.4681 17.7005C20.7565 17.6981 50.9462 17.7029 56.5073 17.7005L56.773 12.9289C56.7657 11.0792 55.411 9.64 53.6748 9.65205H52.0714V11.538C51.9965 17.4518 42.4098 17.4228 42.3424 11.538V9.65205H40.4661C40.4251 10.164 40.5313 11.736 40.4058 12.2117C39.988 14.8197 37.6794 16.1695 35.115 15.916C32.6833 15.9305 30.7346 13.9045 30.737 11.538V9.65205H28.8511C28.8607 10.164 28.88 11.736 28.7907 12.2117C28.4744 14.3101 26.6561 15.916 24.4731 15.916H23.5096C21.3459 15.9136 19.5107 14.3367 19.1919 12.2117C19.0712 11.736 19.1581 10.1543 19.1316 9.65205C17.1128 9.42265 15.2679 10.8353 15.3863 12.9458C15.4539 14.1483 15.5046 15.7783 15.4708 17.6981L15.4681 17.7005Z" fill="#61213C"/>
<path d="M16.3809 44.8132H41.4272V42.7655C41.4199 40.0079 43.1634 37.5906 45.6434 36.3735V35.4945C45.8076 30.4017 53.1821 30.4452 53.3249 35.4945C53.308 35.8978 53.337 36.7236 53.3249 37.1245C54.0638 37.8465 55.4403 37.3225 55.4668 36.2552L56.3627 20.2622C51.7456 20.2574 19.4387 20.2646 15.3648 20.2622C15.0075 26.2098 13.6914 33.8647 9.77462 39.9766C8.42717 41.9567 9.96055 44.9028 12.3947 44.8158C13.2398 44.811 15.5 44.8207 16.379 44.8158L16.3809 44.8132ZM40.864 28.6756L41.7164 25.237C41.9217 24.4184 42.6558 23.846 43.5009 23.846H46.9734C48.1253 23.8219 49.0598 25.0051 48.7483 26.1256L47.8862 29.5642C47.6906 30.3828 46.9565 30.9551 46.1113 30.9551H42.6389C41.4822 30.9841 40.5549 29.784 40.864 28.6756ZM30.3067 28.6756L31.1688 25.237C31.374 24.4184 32.1081 23.846 32.9436 23.846H36.4257C37.5776 23.8219 38.5121 25.0051 38.2006 26.1256L37.3385 29.5642C37.1333 30.3828 36.3992 30.9551 35.5637 30.9551H32.0912C30.9321 30.9889 29.9976 29.7936 30.3067 28.6756ZM27.9089 38.9504L28.7709 35.5118C28.9762 34.7004 29.7006 34.1281 30.5458 34.1281H34.0182C35.1797 34.0967 36.1118 35.292 35.7931 36.4076L34.9745 39.6941C34.8199 40.5755 34.0569 41.2348 33.1658 41.2299H29.6837C28.5294 41.2613 27.6046 40.066 27.9089 38.9504ZM19.7587 28.6756L20.6208 25.237C20.8261 24.4184 21.5505 23.846 22.3957 23.846H25.8681C27.0224 23.8195 27.9545 25.0148 27.6526 26.1256L26.7906 29.5642C26.5853 30.3828 25.8512 30.9551 25.0157 30.9551H21.5336C20.3842 30.9889 19.4472 29.7888 19.7587 28.6756ZM17.3609 38.9504L18.2133 35.5118C18.4185 34.7004 19.1526 34.1281 19.9978 34.1281H23.4702C24.6293 34.0967 25.5566 35.2896 25.2451 36.4076L24.4169 39.6941C24.2672 40.5755 23.5089 41.2348 22.6082 41.2299H19.1357C17.9742 41.2613 17.059 40.066 17.3609 38.9504Z" fill="#61213C"/>
<path d="M13.8213 47.3733V49.0467C13.8213 50.7708 15.2291 52.1786 16.9532 52.1786H38.0753C38.0729 50.3434 39.6473 48.8607 40.4731 47.3733C39.3551 47.3708 14.0024 47.3757 13.8213 47.3733Z" fill="#61213C"/>
<path d="M21.6884 11.5378C21.6884 12.5134 22.4853 13.3586 23.5067 13.3561H24.4702C25.3395 13.3561 26.0664 12.7428 26.2451 11.9314C26.3368 11.5378 26.2668 10.1324 26.2885 9.72192V8.62081C26.2885 7.61385 25.4772 6.80249 24.4702 6.80249H23.5067C22.5094 6.80249 21.686 7.60421 21.6884 8.62081C21.6836 9.26075 21.6932 10.881 21.6884 11.5403L21.6884 11.5378Z" fill="#61213C"/>
<path d="M33.2941 11.5379C33.2917 12.511 34.1055 13.3586 35.1125 13.3562H36.0856C36.8463 13.3562 37.5031 12.878 37.7663 12.2116C38.0102 11.7817 37.8653 10.1421 37.904 9.65191V8.61837C37.904 7.61141 37.0854 6.80005 36.0856 6.80005H35.1125C34.1128 6.80005 33.2942 7.61141 33.2942 8.61837C33.2894 9.25831 33.2966 10.8786 33.2941 11.5379Z" fill="#61213C"/>
<path d="M44.9014 11.5379C44.8942 12.5158 45.7152 13.3586 46.727 13.3562H47.6905C48.4512 13.3562 49.108 12.878 49.3712 12.2116C49.6151 11.7817 49.4702 10.1421 49.5088 9.65191V8.61837C49.5088 7.61141 48.6902 6.80005 47.6905 6.80005H46.727C45.7201 6.80005 44.9015 7.61141 44.9015 8.61837C44.899 9.32588 44.9014 10.8206 44.9014 11.5379Z" fill="#61213C"/>
<path d="M22.5406 36.688H20.5605L20.0679 38.6681H22.0456L22.5406 36.688Z" fill="#61213C"/>
<path d="M33.0885 36.688H31.1181L30.623 38.6681H32.5959L33.0885 36.688Z" fill="#61213C"/>
<path d="M46.044 26.4058H44.0639L43.5688 28.3931H45.5417L46.044 26.4058Z" fill="#61213C"/>
<path d="M35.4894 26.4058H33.5165L33.0215 28.3931H34.9943L35.4894 26.4058Z" fill="#61213C"/>
<path d="M24.9386 26.4058H22.9682L22.4731 28.3931H24.4436L24.9386 26.4058Z" fill="#61213C"/>
<path d="M57.7438 50.9569C56.6305 48.9334 55.0199 47.1199 54.9619 44.6082V42.7657C54.974 41.4303 54.2568 40.066 53.1267 39.2498C52.4433 38.721 51.6247 38.3612 50.7457 38.1922C50.7626 38.1487 50.7626 38.098 50.7626 38.0545V35.4949C50.7312 33.7611 48.1257 33.8431 48.203 35.5794V38.0545C48.203 38.098 48.203 38.139 48.2126 38.1825C47.3167 38.3612 46.5054 38.7379 45.8413 39.2499C45.3463 39.6362 44.8972 40.0974 44.5953 40.6335C43.7815 41.7395 44.0182 43.7003 43.9892 44.9946C44.0303 47.407 42.3085 48.9621 41.2074 51.0122C39.8962 52.1689 41.0046 54.2239 42.6828 54.1442H43.6559L55.1937 54.1176H56.2948C57.9827 54.178 59.079 52.1182 57.7461 50.9591L57.7438 50.9569Z" fill="#61213C"/>
<path d="M47.4781 56.6915H45.7709C45.585 62.2866 53.2855 62.3035 53.0926 56.6819C51.9866 56.6795 48.6324 56.6867 47.4781 56.6915Z" fill="#61213C"/>
</svg>
