<svg width="68" height="68" viewBox="0 0 68 68" fill="none" xmlns="http://www.w3.org/2000/svg">
<path d="M57.1815 44.1686V50.3696H21.8555C21.1432 50.3696 20.566 50.9443 20.566 51.6566C20.566 52.369 21.1432 52.9437 21.8555 52.9437H57.1815V59.1397C57.1815 59.4802 57.0463 59.8086 56.8048 60.0501C56.5633 60.2917 56.2349 60.4268 55.8944 60.4268H19.5954C17.2265 60.492 14.9324 59.5961 13.2349 57.9421C11.5373 56.2903 10.5811 54.0229 10.5811 51.6539C10.5811 49.285 11.5373 47.0151 13.2349 45.3633C14.9325 43.7116 17.2265 42.8157 19.5954 42.8785H55.8944C56.2349 42.8785 56.5633 43.0162 56.8048 43.2576C57.0463 43.4991 57.1815 43.8257 57.1815 44.1686ZM45.3322 24.0777C45.3346 26.7412 44.277 29.2984 42.3934 31.1819C40.5123 33.0678 37.9575 34.1279 35.2917 34.1279C32.6282 34.1303 30.071 33.0726 28.1876 31.1891C26.3017 29.3055 25.244 26.7507 25.2416 24.0849C25.2416 21.4214 26.2992 18.8642 28.1828 16.9808C30.0687 15.0973 32.6236 14.0372 35.2869 14.0372C37.9504 14.042 40.5028 15.0997 42.3837 16.9808C44.2672 18.8643 45.3274 21.4145 45.3322 24.0777ZM36.5763 30.921C36.5763 30.4018 36.2623 29.9309 35.7794 29.7329C35.2988 29.5325 34.7458 29.6435 34.3764 30.0106C34.0094 30.3801 33.8983 30.933 34.0987 31.4136C34.2967 31.8965 34.7676 32.2105 35.2868 32.2105C35.6297 32.2105 35.9557 32.0728 36.1972 31.8313C36.4387 31.5899 36.5763 31.2639 36.5763 30.921ZM40.2274 19.9099C39.6913 17.3768 37.3248 15.6599 34.7507 15.9352C32.1765 16.2129 30.2278 18.391 30.2398 20.9797C30.2398 21.692 30.8146 22.2667 31.5269 22.2667C32.2392 22.2667 32.814 21.692 32.814 20.9797C32.8164 20.0862 33.2993 19.2604 34.0793 18.8233C34.8593 18.3862 35.8155 18.4055 36.5786 18.8716C37.3417 19.3376 37.7932 20.1804 37.7595 21.0738C37.7257 21.9673 37.2113 22.7739 36.4144 23.182C34.9559 23.8967 34.0214 25.3698 33.9997 26.9949V27.1953V27.1929C33.9997 27.9053 34.5768 28.4824 35.2867 28.4824C35.9991 28.4824 36.5762 27.9053 36.5762 27.1929V26.9949C36.5955 26.3381 36.9891 25.7513 37.5856 25.4809C39.6333 24.4449 40.72 22.1532 40.2274 19.9099ZM57.1816 9.01447V40.5176C56.7687 40.3679 56.3316 40.2931 55.8946 40.2906H19.5956C16.1907 40.2955 12.9693 41.8265 10.818 44.4634V16.4981C10.8252 11.654 14.7517 7.72977 19.5956 7.72729H55.8946C56.2351 7.72729 56.5634 7.86252 56.805 8.104C57.0465 8.34548 57.1816 8.67396 57.1816 9.01447ZM47.9089 24.0777C47.9089 20.7284 46.5784 17.5194 44.2119 15.1524C41.8453 12.7854 38.6362 11.4554 35.2866 11.4554C31.9397 11.4554 28.7307 12.7859 26.3637 15.1524C23.9948 17.5189 22.6667 20.7281 22.6667 24.0777C22.6667 27.4246 23.9948 30.6335 26.3637 33.0005C28.7302 35.3694 31.9394 36.6976 35.2866 36.6976C38.6335 36.6952 41.8424 35.3647 44.2094 32.9981C46.5734 30.6317 47.9065 27.4224 47.9089 24.0777Z" fill="#61213C"/>
</svg>
